<?xml version="1.0" standalone="no"?>
<!DOCTYPE svg PUBLIC "-//W3C//DTD SVG 20010904//EN"
 "http://www.w3.org/TR/2001/REC-SVG-20010904/DTD/svg10.dtd">
<svg version="1.0" xmlns="http://www.w3.org/2000/svg"
 width="920.000000pt" height="512.000000pt" viewBox="0 0 920.000000 512.000000"
 preserveAspectRatio="xMidYMid meet">

<g transform="translate(0.000000,512.000000) scale(0.100000,-0.100000)"
fill="#000000" stroke="none">
<path d="M5527 4972 c-3 -4 -14 -38 -27 -77 -12 -38 -25 -73 -29 -77 -3 -3
-33 10 -67 31 -202 123 -473 117 -671 -14 -29 -19 -56 -35 -59 -35 -4 0 -40
30 -81 66 -40 37 -75 65 -76 63 -2 -2 -28 -34 -60 -70 l-56 -65 75 -64 c41
-35 73 -66 72 -69 -2 -3 -19 -40 -39 -81 -20 -41 -42 -99 -49 -127 l-12 -53
-114 0 -114 0 0 -90 0 -90 110 0 110 0 0 -511 0 -511 -153 4 c-143 4 -157 6
-210 31 -49 24 -60 35 -84 85 -27 56 -28 61 -32 260 l-3 202 46 0 46 0 0 90 0
90 -52 0 -53 0 -24 55 c-36 85 -43 85 -82 10 -24 -45 -40 -65 -53 -65 -19 0
-146 66 -146 76 0 3 18 38 41 79 l40 74 -36 7 c-55 10 -123 -3 -193 -37 l-62
-30 -63 55 -62 56 -57 -62 c-31 -35 -57 -66 -58 -69 0 -4 33 -36 74 -73 74
-66 74 -66 65 -103 -5 -21 -9 -100 -9 -175 l0 -138 -95 0 -95 0 0 -90 0 -90
94 0 93 0 6 -222 c5 -245 20 -331 74 -429 25 -48 91 -117 142 -150 l24 -15
-53 -87 c-29 -48 -51 -89 -49 -90 2 -2 35 -23 73 -46 80 -50 68 -56 151 78
l58 94 66 -7 c36 -3 229 -6 429 -6 l362 0 0 -90 0 -90 -80 0 -80 0 0 -375 0
-375 -130 0 -130 0 0 -90 0 -90 130 0 130 0 0 -305 0 -305 -77 0 -78 0 3 -90
3 -90 75 0 74 0 0 -245 0 -245 640 0 640 0 0 60 0 60 70 0 70 0 0 90 0 90 -70
0 -70 0 0 130 0 129 118 3 117 3 3 87 4 88 -121 0 -121 0 0 520 0 520 -130 0
-130 0 0 90 0 90 130 0 130 0 0 80 0 80 75 0 75 0 0 90 0 90 -75 0 -75 0 0
145 0 145 128 0 127 0 0 90 0 90 -127 0 -128 0 0 405 0 405 80 0 80 0 0 90 0
90 -80 0 -80 0 0 155 0 155 -117 0 -118 0 -2 90 -2 90 114 0 113 0 -14 53 c-7
28 -29 84 -49 123 l-36 70 45 128 c30 86 40 129 33 132 -81 29 -157 51 -160
46z m-393 -319 c3 -21 6 -93 6 -160 l0 -123 -52 0 c-29 0 -69 -3 -89 -6 l-37
-6 -4 158 c-3 88 -3 162 -2 165 2 4 41 7 87 8 l84 2 7 -38z m-144 -663 l0 -90
-160 0 -160 0 0 90 0 90 160 0 160 0 0 -90z m538 -697 l-3 -88 -159 0 -160 0
0 87 -1 88 163 0 163 0 -3 -87z m-1698 -113 l0 -90 -160 0 -160 0 0 90 0 90
160 0 160 0 0 -90z m880 -300 l0 -90 -160 0 -160 0 0 90 0 90 160 0 160 0 0
-90z m264 -1107 c3 -21 6 -92 6 -159 l0 -121 -87 -6 c-49 -3 -89 -4 -89 -4 -5
6 -10 318 -6 322 3 3 42 5 87 5 l82 0 7 -37z m586 -553 l0 -90 -160 0 -160 0
0 90 0 90 160 0 160 0 0 -90z m-630 -320 l0 -90 -160 0 -160 0 0 90 0 90 160
0 160 0 0 -90z"/>
<path d="M6649 2740 c-35 -78 -48 -100 -64 -100 -36 0 -92 -20 -130 -46 l-37
-25 -62 55 -62 55 -57 -67 c-31 -36 -57 -68 -56 -72 0 -3 40 -39 89 -80 l89
-75 1 -255 c0 -281 -4 -301 -63 -344 -26 -19 -45 -21 -213 -24 l-184 -4 0
-239 0 -239 165 0 165 0 0 -100 0 -100 90 0 90 0 0 100 0 99 38 6 c136 21 213
57 281 130 80 87 111 197 111 398 l0 127 80 0 c44 0 80 3 80 8 1 4 2 44 3 90
l2 82 -82 0 -83 0 0 158 c0 169 -7 210 -44 265 l-24 35 43 96 44 96 -76 35
c-42 19 -79 35 -83 35 -4 0 -27 -45 -51 -100z m-26 -739 l57 -1 0 -160 0 -160
-90 0 -90 0 0 163 0 163 33 -2 c17 -1 58 -2 90 -3z"/>
</g>
</svg>
