<?xml version="1.0" standalone="no"?>
<!DOCTYPE svg PUBLIC "-//W3C//DTD SVG 20010904//EN"
 "http://www.w3.org/TR/2001/REC-SVG-20010904/DTD/svg10.dtd">
<svg version="1.0" xmlns="http://www.w3.org/2000/svg"
 width="463.000000pt" height="516.000000pt" viewBox="0 0 463.000000 516.000000"
 preserveAspectRatio="xMidYMid meet">

<g transform="translate(0.000000,516.000000) scale(0.100000,-0.100000)"
fill="#000000" stroke="none">
<path d="M2220 5060 l0 -100 -100 0 -100 0 0 -1000 0 -1000 -100 0 -100 0 0
-100 0 -100 -150 0 -150 0 0 -100 0 -100 -150 0 -150 0 0 -100 0 -100 -100 0
-100 0 0 -100 0 -100 -200 0 -200 0 0 100 0 100 -100 0 -100 0 0 100 0 100
-100 0 -100 0 0 150 0 150 -100 0 -100 0 0 -650 0 -650 100 0 100 0 0 -100 0
-100 100 0 100 0 0 -100 0 -100 200 0 200 0 0 -100 0 -100 100 0 100 0 0 -250
0 -250 50 0 50 0 0 -150 0 -150 200 0 200 0 0 100 0 100 -100 0 -100 0 0 150
0 150 100 0 100 0 0 100 0 100 100 0 100 0 0 100 0 100 100 0 100 0 0 100 0
100 100 0 100 0 0 -250 0 -250 50 0 50 0 0 -300 0 -300 250 0 250 0 0 100 0
100 -150 0 -150 0 0 450 0 450 100 0 100 0 0 100 0 100 100 0 100 0 0 100 0
100 100 0 100 0 0 100 0 100 100 0 100 0 0 450 0 450 150 0 150 0 0 -100 0
-100 100 0 100 0 0 200 0 200 -250 0 -250 0 0 300 0 300 450 0 450 0 0 50 0
50 -350 0 -350 0 0 150 0 150 600 0 600 0 0 500 0 500 -150 0 -150 0 0 100 0
100 -1050 0 -1050 0 0 -100z m600 -500 l0 -100 -100 0 -100 0 0 100 0 100 100
0 100 0 0 -100z"/>
</g>
</svg>
